<svg id="visual" viewBox="0 0 900 200" width="900" height="200" xmlns="http://www.w3.org/2000/svg" xmlns:xlink="http://www.w3.org/1999/xlink" version="1.1"><rect x="0" y="0" width="900" height="200" fill="#ffffff"></rect><path d="M0 107L16.7 105.2C33.3 103.3 66.7 99.7 100 96.3C133.3 93 166.7 90 200 86.5C233.3 83 266.7 79 300 78.3C333.3 77.7 366.7 80.3 400 86.5C433.3 92.7 466.7 102.3 500 101.7C533.3 101 566.7 90 600 91.2C633.3 92.3 666.7 105.7 700 110.7C733.3 115.7 766.7 112.3 800 111.7C833.3 111 866.7 113 883.3 114L900 115L900 0L883.3 0C866.7 0 833.3 0 800 0C766.7 0 733.3 0 700 0C666.7 0 633.3 0 600 0C566.7 0 533.3 0 500 0C466.7 0 433.3 0 400 0C366.7 0 333.3 0 300 0C266.7 0 233.3 0 200 0C166.7 0 133.3 0 100 0C66.7 0 33.3 0 16.7 0L0 0Z" fill="#00715f"></path><path d="M0 70L16.7 68.7C33.3 67.3 66.7 64.7 100 68.3C133.3 72 166.7 82 200 84.3C233.3 86.7 266.7 81.3 300 77.3C333.3 73.3 366.7 70.7 400 70.3C433.3 70 466.7 72 500 78.7C533.3 85.3 566.7 96.7 600 97.5C633.3 98.3 666.7 88.7 700 84.2C733.3 79.7 766.7 80.3 800 85C833.3 89.7 866.7 98.3 883.3 102.7L900 107L900 0L883.3 0C866.7 0 833.3 0 800 0C766.7 0 733.3 0 700 0C666.7 0 633.3 0 600 0C566.7 0 533.3 0 500 0C466.7 0 433.3 0 400 0C366.7 0 333.3 0 300 0C266.7 0 233.3 0 200 0C166.7 0 133.3 0 100 0C66.7 0 33.3 0 16.7 0L0 0Z" fill="#037965"></path><path d="M0 60L16.7 63.5C33.3 67 66.7 74 100 73.8C133.3 73.7 166.7 66.3 200 67.3C233.3 68.3 266.7 77.7 300 78.8C333.3 80 366.7 73 400 67.2C433.3 61.3 466.7 56.7 500 55.3C533.3 54 566.7 56 600 61.3C633.3 66.7 666.7 75.3 700 77C733.3 78.7 766.7 73.3 800 71.2C833.3 69 866.7 70 883.3 70.5L900 71L900 0L883.3 0C866.7 0 833.3 0 800 0C766.7 0 733.3 0 700 0C666.7 0 633.3 0 600 0C566.7 0 533.3 0 500 0C466.7 0 433.3 0 400 0C366.7 0 333.3 0 300 0C266.7 0 233.3 0 200 0C166.7 0 133.3 0 100 0C66.7 0 33.3 0 16.7 0L0 0Z" fill="#08806b"></path><path d="M0 41L16.7 45.5C33.3 50 66.7 59 100 59.2C133.3 59.3 166.7 50.7 200 48.5C233.3 46.3 266.7 50.7 300 52.5C333.3 54.3 366.7 53.7 400 52C433.3 50.3 466.7 47.7 500 49.7C533.3 51.7 566.7 58.3 600 61.2C633.3 64 666.7 63 700 57.7C733.3 52.3 766.7 42.7 800 39.3C833.3 36 866.7 39 883.3 40.5L900 42L900 0L883.3 0C866.7 0 833.3 0 800 0C766.7 0 733.3 0 700 0C666.7 0 633.3 0 600 0C566.7 0 533.3 0 500 0C466.7 0 433.3 0 400 0C366.7 0 333.3 0 300 0C266.7 0 233.3 0 200 0C166.7 0 133.3 0 100 0C66.7 0 33.3 0 16.7 0L0 0Z" fill="#0d8871"></path><path d="M0 26L16.7 26.3C33.3 26.7 66.7 27.3 100 27.7C133.3 28 166.7 28 200 28C233.3 28 266.7 28 300 28C333.3 28 366.7 28 400 30.7C433.3 33.3 466.7 38.7 500 41C533.3 43.3 566.7 42.7 600 40.3C633.3 38 666.7 34 700 32.8C733.3 31.7 766.7 33.3 800 33.3C833.3 33.3 866.7 31.7 883.3 30.8L900 30L900 0L883.3 0C866.7 0 833.3 0 800 0C766.7 0 733.3 0 700 0C666.7 0 633.3 0 600 0C566.7 0 533.3 0 500 0C466.7 0 433.3 0 400 0C366.7 0 333.3 0 300 0C266.7 0 233.3 0 200 0C166.7 0 133.3 0 100 0C66.7 0 33.3 0 16.7 0L0 0Z" fill="#129076"></path><path d="M0 6L16.7 9.2C33.3 12.3 66.7 18.7 100 19C133.3 19.3 166.7 13.7 200 14.3C233.3 15 266.7 22 300 23.8C333.3 25.7 366.7 22.3 400 22.2C433.3 22 466.7 25 500 24.3C533.3 23.7 566.7 19.3 600 16.5C633.3 13.7 666.7 12.3 700 14C733.3 15.7 766.7 20.3 800 23.7C833.3 27 866.7 29 883.3 30L900 31L900 0L883.3 0C866.7 0 833.3 0 800 0C766.7 0 733.3 0 700 0C666.7 0 633.3 0 600 0C566.7 0 533.3 0 500 0C466.7 0 433.3 0 400 0C366.7 0 333.3 0 300 0C266.7 0 233.3 0 200 0C166.7 0 133.3 0 100 0C66.7 0 33.3 0 16.7 0L0 0Z" fill="#17987c"></path></svg>