<svg id="visual" viewBox="0 0 900 200" width="900" height="200" xmlns="http://www.w3.org/2000/svg" xmlns:xlink="http://www.w3.org/1999/xlink" version="1.1"><rect x="0" y="0" width="900" height="200" fill="#ffffff"></rect><path d="M0 78L16.7 81.7C33.3 85.3 66.7 92.7 100 98.3C133.3 104 166.7 108 200 106.7C233.3 105.3 266.7 98.7 300 92.2C333.3 85.7 366.7 79.3 400 82.7C433.3 86 466.7 99 500 101.7C533.3 104.3 566.7 96.7 600 94.5C633.3 92.3 666.7 95.7 700 97.3C733.3 99 766.7 99 800 97C833.3 95 866.7 91 883.3 89L900 87L900 0L883.3 0C866.7 0 833.3 0 800 0C766.7 0 733.3 0 700 0C666.7 0 633.3 0 600 0C566.7 0 533.3 0 500 0C466.7 0 433.3 0 400 0C366.7 0 333.3 0 300 0C266.7 0 233.3 0 200 0C166.7 0 133.3 0 100 0C66.7 0 33.3 0 16.7 0L0 0Z" fill="#17987c"></path><path d="M0 55L16.7 58.2C33.3 61.3 66.7 67.7 100 73.7C133.3 79.7 166.7 85.3 200 87.8C233.3 90.3 266.7 89.7 300 85.5C333.3 81.3 366.7 73.7 400 73C433.3 72.3 466.7 78.7 500 82.2C533.3 85.7 566.7 86.3 600 80.8C633.3 75.3 666.7 63.7 700 60.8C733.3 58 766.7 64 800 68.2C833.3 72.3 866.7 74.7 883.3 75.8L900 77L900 0L883.3 0C866.7 0 833.3 0 800 0C766.7 0 733.3 0 700 0C666.7 0 633.3 0 600 0C566.7 0 533.3 0 500 0C466.7 0 433.3 0 400 0C366.7 0 333.3 0 300 0C266.7 0 233.3 0 200 0C166.7 0 133.3 0 100 0C66.7 0 33.3 0 16.7 0L0 0Z" fill="#0e8b73"></path><path d="M0 50L16.7 48.3C33.3 46.7 66.7 43.3 100 43.7C133.3 44 166.7 48 200 49.3C233.3 50.7 266.7 49.3 300 49C333.3 48.7 366.7 49.3 400 48.2C433.3 47 466.7 44 500 43.5C533.3 43 566.7 45 600 47.3C633.3 49.7 666.7 52.3 700 53C733.3 53.7 766.7 52.3 800 49.8C833.3 47.3 866.7 43.7 883.3 41.8L900 40L900 0L883.3 0C866.7 0 833.3 0 800 0C766.7 0 733.3 0 700 0C666.7 0 633.3 0 600 0C566.7 0 533.3 0 500 0C466.7 0 433.3 0 400 0C366.7 0 333.3 0 300 0C266.7 0 233.3 0 200 0C166.7 0 133.3 0 100 0C66.7 0 33.3 0 16.7 0L0 0Z" fill="#067e69"></path><path d="M0 13L16.7 16C33.3 19 66.7 25 100 25.2C133.3 25.3 166.7 19.7 200 18.7C233.3 17.7 266.7 21.3 300 24.8C333.3 28.3 366.7 31.7 400 33.7C433.3 35.7 466.7 36.3 500 33.2C533.3 30 566.7 23 600 24C633.3 25 666.7 34 700 35.3C733.3 36.7 766.7 30.3 800 25.8C833.3 21.3 866.7 18.7 883.3 17.3L900 16L900 0L883.3 0C866.7 0 833.3 0 800 0C766.7 0 733.3 0 700 0C666.7 0 633.3 0 600 0C566.7 0 533.3 0 500 0C466.7 0 433.3 0 400 0C366.7 0 333.3 0 300 0C266.7 0 233.3 0 200 0C166.7 0 133.3 0 100 0C66.7 0 33.3 0 16.7 0L0 0Z" fill="#00715f"></path></svg>