<svg id="visual" viewBox="0 0 900 200" width="900" height="200" xmlns="http://www.w3.org/2000/svg" xmlns:xlink="http://www.w3.org/1999/xlink" version="1.1"><rect x="0" y="0" width="900" height="200" fill="#ffffff"></rect><path d="M0 80L16.7 80.8C33.3 81.7 66.7 83.3 100 90.8C133.3 98.3 166.7 111.7 200 118C233.3 124.3 266.7 123.7 300 123C333.3 122.3 366.7 121.7 400 114.3C433.3 107 466.7 93 500 93.7C533.3 94.3 566.7 109.7 600 112.8C633.3 116 666.7 107 700 104.8C733.3 102.7 766.7 107.3 800 109C833.3 110.7 866.7 109.3 883.3 108.7L900 108L900 201L883.3 201C866.7 201 833.3 201 800 201C766.7 201 733.3 201 700 201C666.7 201 633.3 201 600 201C566.7 201 533.3 201 500 201C466.7 201 433.3 201 400 201C366.7 201 333.3 201 300 201C266.7 201 233.3 201 200 201C166.7 201 133.3 201 100 201C66.7 201 33.3 201 16.7 201L0 201Z" fill="#00715f"></path><path d="M0 114L16.7 118.7C33.3 123.3 66.7 132.7 100 137.2C133.3 141.7 166.7 141.3 200 138C233.3 134.7 266.7 128.3 300 124.5C333.3 120.7 366.7 119.3 400 122.8C433.3 126.3 466.7 134.7 500 139.5C533.3 144.3 566.7 145.7 600 146C633.3 146.3 666.7 145.7 700 142.5C733.3 139.3 766.7 133.7 800 127C833.3 120.3 866.7 112.7 883.3 108.8L900 105L900 201L883.3 201C866.7 201 833.3 201 800 201C766.7 201 733.3 201 700 201C666.7 201 633.3 201 600 201C566.7 201 533.3 201 500 201C466.7 201 433.3 201 400 201C366.7 201 333.3 201 300 201C266.7 201 233.3 201 200 201C166.7 201 133.3 201 100 201C66.7 201 33.3 201 16.7 201L0 201Z" fill="#067e69"></path><path d="M0 149L16.7 146.2C33.3 143.3 66.7 137.7 100 137C133.3 136.3 166.7 140.7 200 143.3C233.3 146 266.7 147 300 147.7C333.3 148.3 366.7 148.7 400 150.5C433.3 152.3 466.7 155.7 500 157.2C533.3 158.7 566.7 158.3 600 157.3C633.3 156.3 666.7 154.7 700 151.2C733.3 147.7 766.7 142.3 800 140.5C833.3 138.7 866.7 140.3 883.3 141.2L900 142L900 201L883.3 201C866.7 201 833.3 201 800 201C766.7 201 733.3 201 700 201C666.7 201 633.3 201 600 201C566.7 201 533.3 201 500 201C466.7 201 433.3 201 400 201C366.7 201 333.3 201 300 201C266.7 201 233.3 201 200 201C166.7 201 133.3 201 100 201C66.7 201 33.3 201 16.7 201L0 201Z" fill="#0e8b73"></path><path d="M0 181L16.7 180.3C33.3 179.7 66.7 178.3 100 174.2C133.3 170 166.7 163 200 162.8C233.3 162.7 266.7 169.3 300 174C333.3 178.7 366.7 181.3 400 182C433.3 182.7 466.7 181.3 500 180.5C533.3 179.7 566.7 179.3 600 176.2C633.3 173 666.7 167 700 164.7C733.3 162.3 766.7 163.7 800 167C833.3 170.3 866.7 175.7 883.3 178.3L900 181L900 201L883.3 201C866.7 201 833.3 201 800 201C766.7 201 733.3 201 700 201C666.7 201 633.3 201 600 201C566.7 201 533.3 201 500 201C466.7 201 433.3 201 400 201C366.7 201 333.3 201 300 201C266.7 201 233.3 201 200 201C166.7 201 133.3 201 100 201C66.7 201 33.3 201 16.7 201L0 201Z" fill="#17987c"></path></svg>